<?xml version="1.0" encoding="iso-8859-1"?>
<!-- Generator: Adobe Illustrator 18.0.0, SVG Export Plug-In . SVG Version: 6.00 Build 0)  -->
<!DOCTYPE svg PUBLIC "-//W3C//DTD SVG 1.1//EN" "http://www.w3.org/Graphics/SVG/1.1/DTD/svg11.dtd">
<svg version="1.1" id="Capa_1" xmlns="http://www.w3.org/2000/svg" xmlns:xlink="http://www.w3.org/1999/xlink" x="0px" y="0px"
	 viewBox="0 0 60 60" style="enable-background:new 0 0 60 60;" xml:space="preserve">
<path d="M54.273,24.129c-1.923-3.711-5.828-6.016-10.19-6.016c-1.233,0-2.454,0.188-3.628,0.558
	c-0.206,0.064-0.428,0.135-0.663,0.211c0.731-1.55,1.212-2.924,1.474-3.753c1.725-5.475-0.571-11.287-5.459-13.82
	C34.038,0.392,32.528,0,30.756,0c-1.812,0-3.623,0.463-5.385,1.375c-4.889,2.534-7.184,8.347-5.459,13.82
	c0.419,1.328,0.88,2.709,1.443,4.069c-0.638-0.22-1.247-0.416-1.809-0.594c-1.175-0.37-2.396-0.558-3.629-0.558
	c-4.363,0-8.269,2.305-10.191,6.016c-0.913,1.761-1.376,3.572-1.376,5.386c0,1.792,0.379,3.256,1.309,5.05
	c1.924,3.711,5.829,6.017,10.193,6.017c1.232,0,2.452-0.188,3.627-0.558c1.212-0.382,3.318-1.142,5.491-2.368l-2.396,21.232
	c-0.031,0.283,0.059,0.566,0.248,0.778C23.014,59.879,23.285,60,23.57,60h12.86c0.285,0,0.556-0.121,0.746-0.334
	c0.189-0.212,0.279-0.495,0.248-0.778l-2.396-21.232c2.173,1.226,4.279,1.985,5.491,2.368c1.175,0.37,2.395,0.558,3.628,0.558
	c4.363,0,8.269-2.306,10.192-6.017c0.917-1.769,1.309-3.278,1.309-5.05C55.649,27.701,55.186,25.89,54.273,24.129z"/>
<g>
</g>
<g>
</g>
<g>
</g>
<g>
</g>
<g>
</g>
<g>
</g>
<g>
</g>
<g>
</g>
<g>
</g>
<g>
</g>
<g>
</g>
<g>
</g>
<g>
</g>
<g>
</g>
<g>
</g>
</svg>
